<svg xmlns="http://www.w3.org/2000/svg" xmlns:xlink="http://www.w3.org/1999/xlink" width="297" height="122" viewBox="0 0 297 122">
  <defs>
    <clipPath id="clip-Default">
      <rect width="297" height="122"/>
    </clipPath>
  </defs>
  <g id="Default" clip-path="url(#clip-Default)">
    <rect width="297" height="122" fill="#fff"/>
    <path id="heart-Light" d="M30,6.563A9.475,9.475,0,0,0,22.6,3a10.287,10.287,0,0,0-5.1,1.333A10.287,10.287,0,0,0,12.4,3,9.475,9.475,0,0,0,5,6.563,11.188,11.188,0,0,0,2.7,15.731c1.508,7.738,9.434,13.162,12.772,15.138a3.965,3.965,0,0,0,4.049,0C22.864,28.894,30.79,23.463,32.3,15.731A11.188,11.188,0,0,0,30,6.563Zm.744,8.865c-1.385,7.106-8.872,12.215-12.027,14.083a2.392,2.392,0,0,1-2.438,0C13.124,27.643,5.64,22.533,4.255,15.428A9.587,9.587,0,0,1,6.218,7.567,7.92,7.92,0,0,1,12.4,4.579a8.651,8.651,0,0,1,4.673,1.342.79.79,0,0,0,.85,0A8.651,8.651,0,0,1,22.6,4.579a7.92,7.92,0,0,1,6.186,2.988A9.587,9.587,0,0,1,30.747,15.428Z" transform="translate(133.651 13)" fill="#898989"/>
    <path id="shopping-basket-Light" d="M15.13,22.236v4.737a.789.789,0,0,1-1.579,0V22.236a.789.789,0,0,1,1.579,0Zm5.526-.789a.789.789,0,0,0-.789.789v4.737a.789.789,0,0,0,1.579,0V22.236A.789.789,0,0,0,20.656,21.447Zm9.418-3.474-1.236,9.691A5.537,5.537,0,0,1,23.356,32.5H11.672a5.54,5.54,0,0,1-5.479-4.808l-1.273-9.71a3.947,3.947,0,0,1,1.525-7.586H9.157l4.506-7.512a.79.79,0,0,1,1.355.813L11,10.395H24l-4.02-6.7a.79.79,0,1,1,1.355-.813l4.506,7.512H28.55a3.947,3.947,0,0,1,1.524,7.586Zm-2.8,9.5,1.172-9.183H6.557l1.2,9.2a3.96,3.96,0,0,0,3.914,3.434H23.359a3.957,3.957,0,0,0,3.912-3.448Zm3.647-13.13a2.368,2.368,0,0,0-2.368-2.368H6.446a2.368,2.368,0,1,0,0,4.737h22.1A2.368,2.368,0,0,0,30.919,14.342Z" transform="translate(193.803 12.5)" fill="#898989"/>
    <path id="Path_3570" data-name="Path 3570" d="M47.117,41.391l-4.679-8.1h2.974a.678.678,0,0,0,0-1.355H31.962v-1.72a.678.678,0,1,0-1.355,0v1.72H17.156a.678.678,0,0,0,0,1.355H20.13l-4.679,8.1a.963.963,0,0,0-.091.339v1.088a5.9,5.9,0,0,0,5.894,5.894h.1a5.9,5.9,0,0,0,5.894-5.894V41.73a.716.716,0,0,0-.091-.339l-4.678-8.1h8.129v20a5.61,5.61,0,0,0-5.015,5.571.678.678,0,0,0,.678.678H36.3a.678.678,0,0,0,.678-.678,5.61,5.61,0,0,0-5.015-5.571v-20h8.129l-4.678,8.1a.648.648,0,0,0-.091.339v1.088a5.9,5.9,0,0,0,5.894,5.894h.1a5.9,5.9,0,0,0,5.894-5.894V41.73a.593.593,0,0,0-.091-.339ZM25.891,42.818a4.544,4.544,0,0,1-4.539,4.539h-.1a4.544,4.544,0,0,1-4.539-4.539v-.41h9.175Zm-8.679-1.765L21.3,33.966,25.4,41.053ZM35.567,58.18H27a4.255,4.255,0,0,1,4.194-3.57h.179A4.255,4.255,0,0,1,35.567,58.18Zm5.7-24.214,4.092,7.087H37.173Zm4.588,8.852a4.544,4.544,0,0,1-4.539,4.539h-.1a4.544,4.544,0,0,1-4.539-4.539v-.41h9.175Z" transform="translate(-1.361 -14.535)" fill="#898989"/>
    <g id="Group_3264" data-name="Group 3264" transform="translate(-5048.105 -2962.822)">
      <path id="eye-Light" d="M31.727,13.568C29.694,10.182,25.142,4.5,17.5,4.5S5.3,10.182,3.267,13.568a5.367,5.367,0,0,0,0,5.54C5.3,22.494,9.854,28.177,17.5,28.177s12.2-5.682,14.23-9.068a5.367,5.367,0,0,0,0-5.54ZM30.374,18.3C28.512,21.4,24.363,26.6,17.5,26.6S6.483,21.4,4.62,18.3a3.8,3.8,0,0,1,0-3.918c1.863-3.092,6.011-8.3,12.877-8.3s11.015,5.209,12.877,8.3a3.8,3.8,0,0,1,0,3.918ZM17.5,10.025a6.314,6.314,0,1,0,6.314,6.314A6.314,6.314,0,0,0,17.5,10.025Zm0,11.049a4.735,4.735,0,1,1,4.735-4.735A4.735,4.735,0,0,1,17.5,21.074Z" transform="translate(5121.608 2976.323)" fill="#898989"/>
    </g>
  </g>
</svg>
